<svg width="52" height="22" viewBox="0 0 52 22" fill="none" xmlns="http://www.w3.org/2000/svg">
<path d="M0 21.3302V0.382812H10.5471V2.08093H1.92728V9.97807H10.2475V11.6821H1.92728V19.6262H10.5471V21.3302H0Z" fill="white"/>
<path d="M22.8303 21.7375C21.8556 21.7567 20.8863 21.5892 19.9746 21.2439C19.2217 20.9609 18.5163 20.5646 17.8828 20.0688C17.3756 19.6729 16.9162 19.2193 16.5137 18.7173C16.1729 18.2766 15.9261 17.9476 15.7969 17.7302L16.9015 16.3082C17.0543 16.5432 17.2835 16.8958 17.5949 17.266C17.9434 17.711 18.3372 18.1186 18.7701 18.4822C19.2997 18.9204 19.8944 19.2733 20.5328 19.5282C21.2803 19.824 22.0794 19.9679 22.8831 19.9512C23.6901 19.9654 24.491 19.8092 25.2335 19.4929C25.9091 19.2058 26.4911 18.7357 26.914 18.1356C27.3546 17.4763 27.5766 16.6952 27.5486 15.9027C27.5684 15.2433 27.4187 14.5899 27.1138 14.0049C26.8138 13.476 26.398 13.022 25.8975 12.6769C25.3458 12.2923 24.7549 11.9674 24.1347 11.7075C23.4707 11.4195 22.7715 11.1198 22.0429 10.8731C21.5376 10.6792 21.0088 10.45 20.4506 10.1797C19.8933 9.91047 19.3705 9.57512 18.8935 9.18081C18.4081 8.774 18.0086 8.27464 17.7183 7.71185C17.4016 7.06526 17.2463 6.35151 17.2658 5.63178C17.2609 4.8894 17.4069 4.1538 17.6948 3.46951C18.2764 2.09804 19.3769 1.01231 20.7561 0.449316C22.2715 -0.118522 23.9413 -0.118522 25.4568 0.449316C26.1192 0.704123 26.7408 1.05452 27.3018 1.48935C27.7795 1.85251 28.1927 2.29346 28.524 2.79377L27.5368 4.12172C27.268 3.69865 26.9327 3.32167 26.5438 3.00529C26.0974 2.63558 25.5931 2.3418 25.0513 2.13568C24.4454 1.90554 23.8015 1.79187 23.1534 1.80072C22.3802 1.78609 21.6186 1.98974 20.9559 2.3883C20.3733 2.73372 19.8959 3.23147 19.575 3.82793C19.2667 4.40038 19.1052 5.04032 19.105 5.69052C19.0905 6.218 19.2184 6.73967 19.4752 7.20066C19.7219 7.6149 20.0545 7.97153 20.4506 8.24657C20.8691 8.53772 21.3184 8.78204 21.7902 8.97517C22.2779 9.18083 22.7656 9.36885 23.2592 9.56276C24.0759 9.86242 24.8692 10.1915 25.6095 10.5323C26.3312 10.8523 27.0101 11.2608 27.6308 11.7486C28.2195 12.2117 28.7006 12.7971 29.0411 13.4643C29.4082 14.2256 29.5875 15.0638 29.564 15.9086C29.598 17.0401 29.2865 18.1551 28.6709 19.1051C28.0783 19.99 27.247 20.6887 26.2735 21.1205C25.1989 21.5951 24.0343 21.8317 22.8597 21.8139" fill="white"/>
<path d="M45.0816 21.7354C43.5861 21.7485 42.1027 21.467 40.7159 20.9069C39.4015 20.377 38.2037 19.5945 37.1904 18.6036C36.1853 17.6172 35.3864 16.4408 34.8401 15.1428C33.72 12.401 33.72 9.32926 34.8401 6.5875C35.3864 5.28949 36.1853 4.11305 37.1904 3.12662C38.2033 2.1353 39.4012 1.35274 40.7159 0.823332C42.1046 0.26366 43.5903 -0.0159212 45.0875 0.000699858C46.3433 -0.00625063 47.5917 0.192231 48.7834 0.588284C49.8786 0.942783 50.9071 1.4769 51.8271 2.16885L50.9164 3.77883C50.143 3.16591 49.2651 2.6981 48.3251 2.39802C47.3156 2.07124 46.2602 1.9086 45.1992 1.91623C43.95 1.90239 42.7102 2.13399 41.5502 2.59785C40.4759 3.03606 39.4993 3.68314 38.6769 4.50162C37.864 5.3204 37.2228 6.29326 36.7908 7.36315C35.9006 9.6292 35.9006 12.1481 36.7908 14.4142C37.2235 15.4867 37.8679 16.4609 38.6857 17.2787C39.5034 18.0965 40.4777 18.7409 41.5502 19.1736C42.7091 19.641 43.9497 19.8728 45.1992 19.8552C46.2602 19.8628 47.3156 19.7001 48.3251 19.3733C49.2661 19.0756 50.1444 18.6075 50.9164 17.9925L51.8271 19.6025C50.9112 20.2892 49.889 20.8212 48.8011 21.1773C47.6037 21.5751 46.3492 21.7736 45.0875 21.7649" fill="white"/>
</svg>
