<svg width="178" height="23" viewBox="0 0 178 23" fill="none" xmlns="http://www.w3.org/2000/svg">
<path d="M0 22.3304V1.37305H11.2665V4.29487H3.32725V10.366H10.9602V13.2878H3.32725V19.4103H11.2665V22.3321H0V22.3304Z" fill="white"/>
<path d="M14.8486 22.3304L23.1933 1.37305H26.2793L34.6376 22.3304H31.0555L28.9976 16.8683H20.487L18.4171 22.3304H14.8486ZM21.6195 13.9482H27.8685L24.7312 5.84473L21.6195 13.9482Z" fill="white"/>
<path d="M43.8838 22.7379C42.8762 22.7379 41.961 22.6113 41.1399 22.3565C40.3188 22.1033 39.5969 21.7868 38.9742 21.4105C38.3515 21.0341 37.828 20.6543 37.4055 20.2729C36.9812 19.8914 36.6596 19.5783 36.4407 19.3337L38.1941 16.6411C38.4302 16.8875 38.7295 17.1783 39.0888 17.517C39.448 17.8557 39.8706 18.1876 40.353 18.5143C40.8354 18.841 41.3777 19.1113 41.9781 19.3269C42.5785 19.5424 43.244 19.6502 43.9727 19.6502C44.6587 19.6502 45.2728 19.5356 45.8151 19.3081C46.3574 19.0788 46.7885 18.7384 47.1101 18.2851C47.4317 17.8317 47.5925 17.2706 47.5925 16.6018C47.5925 16.0167 47.4711 15.5172 47.2298 15.1032C46.9886 14.6893 46.6431 14.3266 46.1949 14.017C45.7467 13.7073 45.213 13.4114 44.5937 13.1274C43.9762 12.8434 43.2851 12.5492 42.5238 12.2447C41.9815 12.0155 41.4461 11.7486 40.9175 11.4441C40.3889 11.1396 39.9099 10.7752 39.4822 10.351C39.0546 9.92847 38.7142 9.43922 38.4593 8.88325C38.2061 8.32899 38.0778 7.68749 38.0778 6.95875C38.0778 6.17184 38.2317 5.41915 38.5414 4.70409C38.851 3.98903 39.2889 3.35095 39.8552 2.79328C40.4231 2.23389 41.0971 1.79425 41.8806 1.47264C42.6641 1.15104 43.5382 0.990234 44.503 0.990234C45.29 0.990234 46.0563 1.10485 46.8022 1.33237C47.548 1.5616 48.2272 1.85754 48.8413 2.22191C49.4554 2.58629 49.9567 2.97632 50.3467 3.3903L48.8995 5.91866C48.5779 5.58851 48.1947 5.27716 47.7499 4.98464C47.3051 4.69212 46.8124 4.45776 46.2702 4.27985C45.7279 4.10194 45.1617 4.01298 44.5681 4.01298C43.8735 4.01298 43.2851 4.14812 42.8026 4.42012C42.3202 4.69041 41.949 5.04451 41.6907 5.48073C41.4324 5.91695 41.3041 6.3891 41.3041 6.89717C41.3041 7.33681 41.3948 7.71144 41.5778 8.02107C41.7591 8.3307 42.0123 8.59415 42.3339 8.81482C42.6555 9.0355 43.0267 9.23565 43.4459 9.41869C43.865 9.60002 44.308 9.78135 44.7733 9.95926C45.6954 10.3322 46.549 10.7102 47.3325 11.0969C48.116 11.4818 48.7951 11.918 49.3716 12.4055C49.9481 12.8931 50.3946 13.4678 50.7111 14.1333C51.0292 14.7987 51.1866 15.5959 51.1866 16.5282C51.1866 17.8317 50.8753 18.9505 50.2526 19.8811C49.6299 20.8134 48.7712 21.5217 47.6746 22.0092C46.5781 22.4967 45.3139 22.7396 43.8838 22.7396V22.7379Z" fill="white"/>
<path d="M59.2405 22.3304V4.3325H53.5371V1.37305H68.2711V4.3325H62.5557V22.3304H59.2405Z" fill="white"/>
<path d="M76.9082 22.7379C75.9006 22.7379 74.9854 22.6113 74.1643 22.3565C73.3432 22.1033 72.6213 21.7868 71.9986 21.4105C71.3759 21.0341 70.8524 20.6543 70.4299 20.2729C70.0057 19.8914 69.6841 19.5783 69.4651 19.3337L71.2185 16.6411C71.4563 16.8875 71.754 17.1783 72.1132 17.517C72.4724 17.8557 72.895 18.1876 73.3774 18.5143C73.8598 18.841 74.4021 19.1113 75.0025 19.3269C75.603 19.5424 76.2684 19.6502 76.9972 19.6502C77.6831 19.6502 78.2973 19.5356 78.8395 19.3081C79.3818 19.0788 79.8129 18.7384 80.1345 18.2851C80.4561 17.8317 80.6169 17.2706 80.6169 16.6018C80.6169 16.0167 80.4955 15.5172 80.2543 15.1032C80.0131 14.6893 79.6675 14.3266 79.2193 14.017C78.7711 13.7073 78.2374 13.4114 77.6181 13.1274C77.0006 12.8434 76.3095 12.5492 75.5482 12.2447C75.0059 12.0155 74.4705 11.7486 73.9419 11.4441C73.4133 11.1396 72.9343 10.7752 72.5067 10.351C72.079 9.92847 71.7386 9.43922 71.4837 8.88325C71.2288 8.32899 71.1022 7.68749 71.1022 6.95875C71.1022 6.17184 71.2562 5.41915 71.5658 4.70409C71.8754 3.98903 72.3133 3.35095 72.8796 2.79328C73.4475 2.23389 74.1215 1.79425 74.905 1.47264C75.6885 1.15104 76.5626 0.990234 77.5275 0.990234C78.3144 0.990234 79.0807 1.10485 79.8266 1.33237C80.5724 1.5616 81.2516 1.85754 81.8657 2.22191C82.4798 2.58629 82.9811 2.97632 83.3711 3.3903L81.9239 5.91866C81.6023 5.58851 81.2191 5.27716 80.7743 4.98464C80.3295 4.69212 79.8369 4.45776 79.2946 4.27985C78.7523 4.10194 78.1844 4.01298 77.5925 4.01298C76.8979 4.01298 76.3095 4.14812 75.8271 4.42012C75.3446 4.69041 74.9734 5.04451 74.7151 5.48073C74.4568 5.91695 74.3285 6.3891 74.3285 6.89717C74.3285 7.33681 74.4192 7.71144 74.6022 8.02107C74.7836 8.3307 75.0367 8.59415 75.3583 8.81482C75.6799 9.0355 76.0512 9.23565 76.4703 9.41869C76.8894 9.60002 77.3324 9.78135 77.7977 9.95926C78.7198 10.3322 79.5734 10.7102 80.3569 11.0969C81.1404 11.4818 81.8195 11.918 82.396 12.4055C82.9725 12.8931 83.419 13.4678 83.7355 14.1333C84.0536 14.7987 84.211 15.5959 84.211 16.5282C84.211 17.8317 83.8997 18.9505 83.277 19.8811C82.6543 20.8134 81.7956 21.5217 80.699 22.0092C79.6025 22.4967 78.3383 22.7396 76.9082 22.7396V22.7379Z" fill="white"/>
<path d="M88.0085 22.3304V1.37305H91.3358V22.3304H88.0085Z" fill="white"/>
<path d="M95.8076 22.3304V1.37305H101.193C102.683 1.37305 104.067 1.63991 105.346 2.17364C106.624 2.70737 107.745 3.4498 108.706 4.40264C109.667 5.35548 110.417 6.46912 110.954 7.74357C111.491 9.01802 111.76 10.3917 111.76 11.8646C111.76 13.3375 111.493 14.7094 110.959 15.9804C110.425 17.2515 109.678 18.3617 108.716 19.3145C107.755 20.2674 106.633 21.0081 105.35 21.5367C104.067 22.0653 102.679 22.3304 101.189 22.3304H95.8042H95.8076ZM99.1349 19.3453H100.837C101.887 19.3453 102.859 19.1588 103.752 18.7859C104.645 18.413 105.425 17.8878 106.089 17.2104C106.754 16.533 107.271 15.7392 107.639 14.8292C108.006 13.9191 108.191 12.9269 108.191 11.8509C108.191 10.7749 108.006 9.79295 107.639 8.87945C107.271 7.96425 106.754 7.1705 106.089 6.4982C105.423 5.8242 104.645 5.30074 103.752 4.92268C102.859 4.54633 101.887 4.35816 100.837 4.35816H99.1349V19.3453Z" fill="white"/>
<path d="M115.585 22.3304V1.37305H126.851V4.29487H118.912V10.366H126.545V13.2878H118.912V19.4103H126.851V22.3321H115.585V22.3304Z" fill="white"/>
<path d="M148.164 22.7377C146.58 22.7377 145.104 22.4606 143.732 21.9063C142.36 21.3521 141.156 20.5788 140.119 19.5884C139.082 18.5979 138.271 17.4432 137.686 16.1277C137.101 14.8105 136.811 13.3906 136.811 11.8664C136.811 10.3422 137.105 8.93261 137.693 7.61198C138.282 6.29134 139.093 5.13493 140.126 4.14445C141.159 3.15398 142.36 2.38076 143.727 1.8265C145.094 1.27225 146.565 0.995117 148.14 0.995117C149.435 0.995117 150.664 1.18158 151.823 1.55451C152.983 1.92743 153.987 2.42181 154.834 3.04107L153.373 5.86025C152.739 5.35218 151.984 4.95873 151.112 4.67818C150.239 4.39763 149.321 4.25907 148.356 4.25907C147.213 4.25907 146.158 4.45408 145.193 4.84412C144.228 5.23415 143.386 5.77301 142.671 6.46412C141.956 7.15523 141.404 7.96095 141.014 8.883C140.624 9.80676 140.429 10.8007 140.429 11.8681C140.429 12.9356 140.624 13.9295 141.014 14.8532C141.404 15.777 141.956 16.5827 142.671 17.2721C143.386 17.9632 144.228 18.5021 145.193 18.8921C146.158 19.2821 147.213 19.4772 148.356 19.4772C149.321 19.4772 150.239 19.3369 151.112 19.058C151.984 18.7792 152.737 18.384 153.373 17.8777L154.834 20.6969C154.013 21.299 153.024 21.79 151.868 22.1697C150.711 22.5512 149.478 22.7411 148.166 22.7411L148.164 22.7377Z" fill="white"/>
<path d="M167.432 22.7377C165.967 22.7377 164.595 22.4589 163.316 21.8995C162.036 21.3401 160.916 20.5634 159.949 19.5695C158.984 18.5739 158.228 17.4192 157.682 16.102C157.137 14.7848 156.863 13.3735 156.863 11.8664C156.863 10.3593 157.137 8.93603 157.682 7.62395C158.228 6.31187 158.984 5.15717 159.949 4.16327C160.914 3.16766 162.036 2.39102 163.316 1.83334C164.595 1.27567 165.965 0.995117 167.432 0.995117C168.898 0.995117 170.268 1.27396 171.547 1.83334C172.825 2.39273 173.947 3.16937 174.914 4.16327C175.879 5.15888 176.635 6.31187 177.181 7.62395C177.726 8.93603 178 10.3508 178 11.8664C178 13.3821 177.726 14.7865 177.181 16.102C176.635 17.4192 175.879 18.5739 174.914 19.5695C173.949 20.5651 172.827 21.3418 171.547 21.8995C170.27 22.4589 168.898 22.7377 167.432 22.7377ZM167.432 19.537C168.431 19.537 169.356 19.3437 170.206 18.9588C171.056 18.5739 171.797 18.0368 172.428 17.3457C173.06 16.6563 173.547 15.8454 173.896 14.9131C174.243 13.9825 174.416 12.9664 174.416 11.8647C174.416 10.763 174.243 9.7486 173.896 8.81629C173.549 7.88568 173.06 7.07483 172.428 6.38372C171.797 5.69432 171.056 5.15546 170.206 4.77056C169.356 4.38566 168.431 4.19235 167.432 4.19235C166.433 4.19235 165.521 4.38566 164.669 4.77056C163.819 5.15546 163.076 5.69432 162.447 6.38372C161.815 7.07312 161.326 7.88397 160.979 8.81629C160.632 9.7486 160.459 10.7647 160.459 11.8647C160.459 12.9647 160.632 13.9825 160.979 14.9131C161.326 15.8454 161.815 16.6563 162.447 17.3457C163.078 18.0368 163.819 18.5739 164.669 18.9588C165.519 19.3437 166.441 19.537 167.432 19.537Z" fill="white"/>
</svg>
