<svg width="52" height="24" viewBox="0 0 52 24" fill="none" xmlns="http://www.w3.org/2000/svg">
<path d="M0 22.5695V1.18457H10.5471V2.91816H1.92728V10.9802H10.2475V12.7198H1.92728V20.8299H10.5471V22.5695H0Z" fill="black"/>
<path d="M22.8303 22.984C21.8556 23.0036 20.8863 22.8326 19.9746 22.4802C19.2217 22.1912 18.5163 21.7866 17.8828 21.2804C17.3756 20.8763 16.9162 20.4133 16.5137 19.9007C16.1729 19.4508 15.9261 19.115 15.7969 18.893L16.9015 17.4413C17.0543 17.6813 17.2835 18.0412 17.5949 18.4191C17.9434 18.8735 18.3372 19.2896 18.7701 19.6608C19.2997 20.1081 19.8944 20.4684 20.5328 20.7285C21.2803 21.0306 22.0794 21.1774 22.8831 21.1604C23.6901 21.1749 24.491 21.0155 25.2335 20.6926C25.9091 20.3994 26.4911 19.9195 26.914 19.3069C27.3546 18.6339 27.5766 17.8364 27.5486 17.0274C27.5684 16.3542 27.4187 15.6871 27.1138 15.0899C26.8138 14.55 26.398 14.0865 25.8975 13.7342C25.3458 13.3416 24.7549 13.0099 24.1347 12.7445C23.4707 12.4505 22.7715 12.1446 22.0429 11.8927C21.5376 11.6947 21.0088 11.4607 20.4506 11.1848C19.8933 10.91 19.3705 10.5676 18.8935 10.1651C18.4081 9.74975 18.0086 9.23996 17.7183 8.66541C17.4016 8.00532 17.2463 7.27665 17.2658 6.54189C17.2609 5.78401 17.4069 5.03304 17.6948 4.33446C18.2764 2.93434 19.3769 1.82594 20.7561 1.25118C22.2715 0.671482 23.9413 0.671482 25.4568 1.25118C26.1192 1.51131 26.7408 1.86903 27.3018 2.31294C27.7795 2.68368 28.1927 3.13385 28.524 3.64461L27.5368 5.00029C27.268 4.56839 26.9327 4.18353 26.5438 3.86055C26.0974 3.48311 25.5931 3.18319 25.0513 2.97277C24.4454 2.73783 23.8015 2.62178 23.1534 2.63081C22.3802 2.61588 21.6186 2.82379 20.9559 3.23067C20.3733 3.5833 19.8959 4.09144 19.575 4.70036C19.2667 5.28477 19.1052 5.93808 19.105 6.60186C19.0905 7.14036 19.2184 7.67292 19.4752 8.14354C19.7219 8.56643 20.0545 8.93052 20.4506 9.2113C20.8691 9.50853 21.3184 9.75796 21.7902 9.95512C22.2779 10.1651 22.7656 10.357 23.2592 10.555C24.0759 10.8609 24.8692 11.1968 25.6095 11.5448C26.3312 11.8714 27.0101 12.2885 27.6308 12.7864C28.2195 13.2593 28.7006 13.8569 29.0411 14.538C29.4082 15.3152 29.5875 16.1709 29.564 17.0334C29.598 18.1885 29.2865 19.3268 28.6709 20.2967C28.0783 21.2 27.247 21.9133 26.2735 22.3541C25.1989 22.8387 24.0343 23.0802 22.8597 23.062" fill="black"/>
<path d="M45.0816 22.9834C43.5861 22.9967 42.1027 22.7093 40.7159 22.1376C39.4015 21.5966 38.2037 20.7977 37.1904 19.7862C36.1853 18.7791 35.3864 17.5781 34.8401 16.253C33.72 13.454 33.72 10.3181 34.8401 7.51904C35.3864 6.19392 36.1853 4.99291 37.1904 3.98587C38.2033 2.97385 39.4012 2.17494 40.7159 1.63448C42.1046 1.06311 43.5903 0.777692 45.0875 0.79466C46.3433 0.787564 47.5917 0.990191 48.7834 1.39452C49.8786 1.75642 50.9071 2.3017 51.8271 3.0081L50.9164 4.6517C50.143 4.02598 49.2651 3.5484 48.3251 3.24205C47.3156 2.90845 46.2602 2.74241 45.1992 2.7502C43.95 2.73607 42.7102 2.97251 41.5502 3.44606C40.4759 3.89342 39.4993 4.55402 38.6769 5.38959C37.864 6.22548 37.2228 7.21866 36.7908 8.31089C35.9006 10.6243 35.9006 13.1958 36.7908 15.5092C37.2235 16.6041 37.8679 17.5987 38.6857 18.4336C39.5034 19.2684 40.4777 19.9263 41.5502 20.368C42.7091 20.8452 43.9497 21.0818 45.1992 21.0639C46.2602 21.0717 47.3156 20.9056 48.3251 20.572C49.2661 20.268 50.1444 19.7902 50.9164 19.1623L51.8271 20.8059C50.9112 21.507 49.889 22.0501 48.8011 22.4136C47.6037 22.8197 46.3492 23.0224 45.0875 23.0134" fill="black"/>
</svg>
