<svg width="118" height="60" viewBox="0 0 118 60" fill="none" xmlns="http://www.w3.org/2000/svg">
<g filter="url(#filter0_b_1_18)">
<path d="M6.55556 30C6.55556 16.1929 17.7484 5 31.5556 5L85.1334 5C98.9405 5 110.133 16.1929 110.133 30C110.133 43.8071 98.9404 55 85.1333 55L31.5555 55C17.7484 55 6.55556 43.8071 6.55556 30Z" fill="white" fill-opacity="0.8"/>
<path d="M6.55556 30C6.55556 16.1929 17.7484 5 31.5556 5L85.1334 5C98.9405 5 110.133 16.1929 110.133 30C110.133 43.8071 98.9404 55 85.1333 55L31.5555 55C17.7484 55 6.55556 43.8071 6.55556 30Z" stroke="white" stroke-opacity="0.1"/>
</g>
<g filter="url(#filter1_b_1_18)">
<path d="M1 30C1 13.9837 13.9837 1 30 1L88 1C104.016 1 117 13.9837 117 30C117 46.0163 104.016 59 88 59L30 59C13.9837 59 1 46.0163 1 30Z" stroke="white" stroke-opacity="0.1" stroke-width="2"/>
</g>
<path d="M42.7993 31.136C42.7993 30.352 42.9579 29.666 43.2753 29.078C43.5926 28.4807 44.0266 28.0187 44.5773 27.692C45.1373 27.3653 45.7626 27.202 46.4533 27.202C47.0506 27.202 47.6059 27.342 48.1193 27.622C48.6326 27.8927 49.0246 28.252 49.2953 28.7V24.64H50.5833V35H49.2953V33.558C49.0433 34.0153 48.6699 34.3933 48.1753 34.692C47.6806 34.9813 47.1019 35.126 46.4393 35.126C45.7579 35.126 45.1373 34.958 44.5773 34.622C44.0266 34.286 43.5926 33.8147 43.2753 33.208C42.9579 32.6013 42.7993 31.9107 42.7993 31.136ZM49.2953 31.15C49.2953 30.5713 49.1786 30.0673 48.9453 29.638C48.7119 29.2087 48.3946 28.882 47.9933 28.658C47.6013 28.4247 47.1673 28.308 46.6913 28.308C46.2153 28.308 45.7813 28.42 45.3893 28.644C44.9973 28.868 44.6846 29.1947 44.4513 29.624C44.2179 30.0533 44.1013 30.5573 44.1013 31.136C44.1013 31.724 44.2179 32.2373 44.4513 32.676C44.6846 33.1053 44.9973 33.4367 45.3893 33.67C45.7813 33.894 46.2153 34.006 46.6913 34.006C47.1673 34.006 47.6013 33.894 47.9933 33.67C48.3946 33.4367 48.7119 33.1053 48.9453 32.676C49.1786 32.2373 49.2953 31.7287 49.2953 31.15ZM54.0102 28.574C54.2342 28.1353 54.5515 27.7947 54.9622 27.552C55.3822 27.3093 55.8909 27.188 56.4882 27.188V28.504H56.1522C54.7242 28.504 54.0102 29.2787 54.0102 30.828V35H52.7362V27.328H54.0102V28.574ZM57.4829 31.136C57.4829 30.352 57.6415 29.666 57.9589 29.078C58.2762 28.4807 58.7102 28.0187 59.2609 27.692C59.8209 27.3653 60.4415 27.202 61.1229 27.202C61.7949 27.202 62.3782 27.3467 62.8729 27.636C63.3675 27.9253 63.7362 28.2893 63.9789 28.728V27.328H65.2669V35H63.9789V33.572C63.7269 34.02 63.3489 34.3933 62.8449 34.692C62.3502 34.9813 61.7715 35.126 61.1089 35.126C60.4275 35.126 59.8115 34.958 59.2609 34.622C58.7102 34.286 58.2762 33.8147 57.9589 33.208C57.6415 32.6013 57.4829 31.9107 57.4829 31.136ZM63.9789 31.15C63.9789 30.5713 63.8622 30.0673 63.6289 29.638C63.3955 29.2087 63.0782 28.882 62.6769 28.658C62.2849 28.4247 61.8509 28.308 61.3749 28.308C60.8989 28.308 60.4649 28.42 60.0729 28.644C59.6809 28.868 59.3682 29.1947 59.1349 29.624C58.9015 30.0533 58.7849 30.5573 58.7849 31.136C58.7849 31.724 58.9015 32.2373 59.1349 32.676C59.3682 33.1053 59.6809 33.4367 60.0729 33.67C60.4649 33.894 60.8989 34.006 61.3749 34.006C61.8509 34.006 62.2849 33.894 62.6769 33.67C63.0782 33.4367 63.3955 33.1053 63.6289 32.676C63.8622 32.2373 63.9789 31.7287 63.9789 31.15ZM70.5838 27.202C71.2465 27.202 71.8251 27.3467 72.3198 27.636C72.8238 27.9253 73.1971 28.2893 73.4398 28.728V27.328H74.7278V35.168C74.7278 35.868 74.5785 36.4887 74.2798 37.03C73.9811 37.5807 73.5518 38.01 72.9918 38.318C72.4411 38.626 71.7971 38.78 71.0598 38.78C70.0518 38.78 69.2118 38.542 68.5398 38.066C67.8678 37.59 67.4711 36.9413 67.3498 36.12H68.6098C68.7498 36.5867 69.0391 36.96 69.4778 37.24C69.9165 37.5293 70.4438 37.674 71.0598 37.674C71.7598 37.674 72.3291 37.4547 72.7678 37.016C73.2158 36.5773 73.4398 35.9613 73.4398 35.168V33.558C73.1878 34.006 72.8145 34.3793 72.3198 34.678C71.8251 34.9767 71.2465 35.126 70.5838 35.126C69.9025 35.126 69.2818 34.958 68.7218 34.622C68.1711 34.286 67.7371 33.8147 67.4198 33.208C67.1025 32.6013 66.9438 31.9107 66.9438 31.136C66.9438 30.352 67.1025 29.666 67.4198 29.078C67.7371 28.4807 68.1711 28.0187 68.7218 27.692C69.2818 27.3653 69.9025 27.202 70.5838 27.202ZM73.4398 31.15C73.4398 30.5713 73.3231 30.0673 73.0898 29.638C72.8565 29.2087 72.5391 28.882 72.1378 28.658C71.7458 28.4247 71.3118 28.308 70.8358 28.308C70.3598 28.308 69.9258 28.42 69.5338 28.644C69.1418 28.868 68.8291 29.1947 68.5958 29.624C68.3625 30.0533 68.2458 30.5573 68.2458 31.136C68.2458 31.724 68.3625 32.2373 68.5958 32.676C68.8291 33.1053 69.1418 33.4367 69.5338 33.67C69.9258 33.894 70.3598 34.006 70.8358 34.006C71.3118 34.006 71.7458 33.894 72.1378 33.67C72.5391 33.4367 72.8565 33.1053 73.0898 32.676C73.3231 32.2373 73.4398 31.7287 73.4398 31.15Z" fill="#212121"/>
<defs>
<filter id="filter0_b_1_18" x="2.55556" y="1" width="111.578" height="58" filterUnits="userSpaceOnUse" color-interpolation-filters="sRGB">
<feFlood flood-opacity="0" result="BackgroundImageFix"/>
<feGaussianBlur in="BackgroundImageFix" stdDeviation="2"/>
<feComposite in2="SourceAlpha" operator="in" result="effect1_backgroundBlur_1_18"/>
<feBlend mode="normal" in="SourceGraphic" in2="effect1_backgroundBlur_1_18" result="shape"/>
</filter>
<filter id="filter1_b_1_18" x="-20" y="-20" width="158" height="100" filterUnits="userSpaceOnUse" color-interpolation-filters="sRGB">
<feFlood flood-opacity="0" result="BackgroundImageFix"/>
<feGaussianBlur in="BackgroundImageFix" stdDeviation="10"/>
<feComposite in2="SourceAlpha" operator="in" result="effect1_backgroundBlur_1_18"/>
<feBlend mode="normal" in="SourceGraphic" in2="effect1_backgroundBlur_1_18" result="shape"/>
</filter>
</defs>
</svg>
