<svg width="85" height="60" viewBox="0 0 85 60" fill="none" xmlns="http://www.w3.org/2000/svg">
<g filter="url(#filter0_b_204_2059)">
<path d="M5 30C5 16.1929 16.1929 5 30 5L54 5C67.8071 5 79 16.1929 79 30V30C79 43.8071 67.8071 55 54 55L30 55C16.1929 55 5 43.8071 5 30V30Z" fill="white" fill-opacity="0.8"/>
<path d="M5 30C5 16.1929 16.1929 5 30 5L54 5C67.8071 5 79 16.1929 79 30V30C79 43.8071 67.8071 55 54 55L30 55C16.1929 55 5 43.8071 5 30V30Z" stroke="white" stroke-opacity="0.1"/>
</g>
<g filter="url(#filter1_b_204_2059)">
<path d="M30 1L55 1C71.0163 1 84 13.9837 84 30C84 46.0163 71.0163 59 55 59H30C13.9837 59 1 46.0163 1 30C1 13.9837 13.9837 1 30 1Z" stroke="white" stroke-opacity="0.1" stroke-width="2"/>
</g>
<path d="M23.352 28.742C23.604 28.3033 23.9773 27.9393 24.472 27.65C24.976 27.3513 25.5593 27.202 26.222 27.202C26.9033 27.202 27.5193 27.3653 28.07 27.692C28.63 28.0187 29.0687 28.4807 29.386 29.078C29.7033 29.666 29.862 30.352 29.862 31.136C29.862 31.9107 29.7033 32.6013 29.386 33.208C29.0687 33.8147 28.63 34.286 28.07 34.622C27.5193 34.958 26.9033 35.126 26.222 35.126C25.5687 35.126 24.99 34.9813 24.486 34.692C23.9913 34.3933 23.6133 34.0247 23.352 33.586V38.64H22.078V27.328H23.352V28.742ZM28.56 31.136C28.56 30.5573 28.4433 30.0533 28.21 29.624C27.9767 29.1947 27.6593 28.868 27.258 28.644C26.866 28.42 26.432 28.308 25.956 28.308C25.4893 28.308 25.0553 28.4247 24.654 28.658C24.262 28.882 23.9447 29.2133 23.702 29.652C23.4687 30.0813 23.352 30.5807 23.352 31.15C23.352 31.7287 23.4687 32.2373 23.702 32.676C23.9447 33.1053 24.262 33.4367 24.654 33.67C25.0553 33.894 25.4893 34.006 25.956 34.006C26.432 34.006 26.866 33.894 27.258 33.67C27.6593 33.4367 27.9767 33.1053 28.21 32.676C28.4433 32.2373 28.56 31.724 28.56 31.136ZM32.8129 24.64V35H31.5389V24.64H32.8129ZM34.5083 31.136C34.5083 30.352 34.6669 29.666 34.9843 29.078C35.3016 28.4807 35.7356 28.0187 36.2863 27.692C36.8463 27.3653 37.4669 27.202 38.1483 27.202C38.8203 27.202 39.4036 27.3467 39.8983 27.636C40.3929 27.9253 40.7616 28.2893 41.0043 28.728V27.328H42.2923V35H41.0043V33.572C40.7523 34.02 40.3743 34.3933 39.8703 34.692C39.3756 34.9813 38.7969 35.126 38.1343 35.126C37.4529 35.126 36.8369 34.958 36.2863 34.622C35.7356 34.286 35.3016 33.8147 34.9843 33.208C34.6669 32.6013 34.5083 31.9107 34.5083 31.136ZM41.0043 31.15C41.0043 30.5713 40.8876 30.0673 40.6543 29.638C40.4209 29.2087 40.1036 28.882 39.7023 28.658C39.3103 28.4247 38.8763 28.308 38.4003 28.308C37.9243 28.308 37.4903 28.42 37.0983 28.644C36.7063 28.868 36.3936 29.1947 36.1603 29.624C35.9269 30.0533 35.8103 30.5573 35.8103 31.136C35.8103 31.724 35.9269 32.2373 36.1603 32.676C36.3936 33.1053 36.7063 33.4367 37.0983 33.67C37.4903 33.894 37.9243 34.006 38.4003 34.006C38.8763 34.006 39.3103 33.894 39.7023 33.67C40.1036 33.4367 40.4209 33.1053 40.6543 32.676C40.8876 32.2373 41.0043 31.7287 41.0043 31.15ZM51.0532 27.328L46.4332 38.612H45.1172L46.6292 34.916L43.5352 27.328H44.9492L47.3572 33.544L49.7372 27.328H51.0532Z" fill="#212121"/>
<path d="M62.608 26.4642C62.4811 26.347 62.3183 26.2762 62.146 26.2633L56.1983 26.101C55.8284 26.0692 55.5084 26.3989 55.4989 26.7688C55.4895 27.1387 55.7928 27.4742 56.1633 27.4619L60.5237 27.5842L55.537 32.571C55.4091 32.6989 55.3373 32.8723 55.3373 33.0531C55.3373 33.234 55.4091 33.4074 55.537 33.5353C55.6648 33.6631 55.8383 33.735 56.0191 33.735C56.1999 33.735 56.3734 33.6632 56.5012 33.5353L61.488 28.5485L61.6075 32.906C61.5951 33.2765 61.9315 33.5813 62.302 33.5719C62.6725 33.5624 63.0025 33.2335 62.9683 32.8711L62.8075 26.9248C62.804 26.7511 62.7324 26.5856 62.608 26.4642V26.4642Z" fill="#212121"/>
<defs>
<filter id="filter0_b_204_2059" x="1" y="1" width="82" height="58" filterUnits="userSpaceOnUse" color-interpolation-filters="sRGB">
<feFlood flood-opacity="0" result="BackgroundImageFix"/>
<feGaussianBlur in="BackgroundImageFix" stdDeviation="2"/>
<feComposite in2="SourceAlpha" operator="in" result="effect1_backgroundBlur_204_2059"/>
<feBlend mode="normal" in="SourceGraphic" in2="effect1_backgroundBlur_204_2059" result="shape"/>
</filter>
<filter id="filter1_b_204_2059" x="-20" y="-20" width="125" height="100" filterUnits="userSpaceOnUse" color-interpolation-filters="sRGB">
<feFlood flood-opacity="0" result="BackgroundImageFix"/>
<feGaussianBlur in="BackgroundImageFix" stdDeviation="10"/>
<feComposite in2="SourceAlpha" operator="in" result="effect1_backgroundBlur_204_2059"/>
<feBlend mode="normal" in="SourceGraphic" in2="effect1_backgroundBlur_204_2059" result="shape"/>
</filter>
</defs>
</svg>
